<?xml version="1.0" encoding="UTF-8"?>
<svg id="Lager_2" data-name="Lager 2" xmlns="http://www.w3.org/2000/svg" viewBox="0 0 877.25 207.26">
  <defs>
    <style>
      .cls-1 {
        fill: #fff;
      }
    </style>
  </defs>
  <g id="Lager_1-2" data-name="Lager 1">
    <g>
      <path class="cls-1" d="M47.25,21.3c-3.6.2-6.23.6-7.88,1.2s-2.77,1.75-3.38,3.45c-.6,1.7-.9,4.45-.9,8.25v76.2c0,3.2.25,5.53.75,6.98.5,1.45,1.37,2.43,2.62,2.92,1.25.5,3.27.75,6.07.75h7.35c6.8,0,12.67-3.05,17.62-9.15,4.95-6.1,8.17-14.2,9.67-24.3h3.45c-.3,3.4-.45,7.8-.45,13.2,0,9.6.35,17.5,1.05,23.7-6.8-.3-18.25-.45-34.35-.45-21.8,0-38.1.15-48.9.45v-3c3.3-.2,5.72-.6,7.27-1.2,1.55-.6,2.6-1.75,3.15-3.45.55-1.7.83-4.45.83-8.25V34.2c0-3.8-.28-6.55-.83-8.25-.55-1.7-1.6-2.85-3.15-3.45-1.55-.6-3.98-1-7.27-1.2v-3c5.1.3,13,.45,23.7.45s18.05-.15,23.55-.45v3Z"/>
      <path class="cls-1" d="M121.35,110.55c0,4.1.72,6.93,2.18,8.48,1.45,1.55,3.92,2.33,7.42,2.33v3.15c-10-.4-16.65-.6-19.95-.6-3.1,0-10.05.2-20.85.6v-3.15c3.6,0,6.1-.77,7.5-2.33,1.4-1.55,2.1-4.37,2.1-8.48v-47.25c0-4.6-.7-7.95-2.1-10.05-1.4-2.1-3.9-3.15-7.5-3.15v-3.15c3.2.3,6.3.45,9.3.45,8.9,0,16.2-.7,21.9-2.1v65.25ZM119.62,11.33c2.45,2.05,3.67,4.88,3.67,8.47s-1.23,6.43-3.67,8.48c-2.45,2.05-5.78,3.08-9.98,3.08s-7.53-1.02-9.98-3.08c-2.45-2.05-3.67-4.88-3.67-8.48s1.22-6.42,3.67-8.47c2.45-2.05,5.77-3.08,9.98-3.08s7.52,1.03,9.98,3.08Z"/>
      <path class="cls-1" d="M209.7,50.7c1.7,1.9,2.9,4.35,3.6,7.35.7,3,1.05,7.05,1.05,12.15v40.35c0,4.1.72,6.93,2.18,8.48,1.45,1.55,3.92,2.33,7.42,2.33v3.15c-10-.4-16.6-.6-19.8-.6-3,0-9.5.2-19.5.6v-3.15c3,0,5.1-.77,6.3-2.33,1.2-1.55,1.8-4.37,1.8-8.48v-46.65c0-4.1-.68-7.2-2.03-9.3-1.35-2.1-3.78-3.15-7.27-3.15-4.1,0-7.6,1.68-10.5,5.02-2.9,3.35-4.35,7.48-4.35,12.38v41.7c0,4.1.6,6.93,1.8,8.48,1.2,1.55,3.3,2.33,6.3,2.33v3.15c-9.2-.4-15.4-.6-18.6-.6-3,0-9.9.2-20.7.6v-3.15c3.6,0,6.1-.77,7.5-2.33,1.4-1.55,2.1-4.37,2.1-8.48v-47.25c0-4.6-.7-7.95-2.1-10.05-1.4-2.1-3.9-3.15-7.5-3.15v-3.15c3.2.3,6.3.45,9.3.45,8.9,0,16.2-.7,21.9-2.1v13.5c4.5-9.3,12.7-13.95,24.6-13.95,7.6,0,13.1,1.95,16.5,5.85Z"/>
      <path class="cls-1" d="M301.8,50.7c1.7,1.9,2.9,4.35,3.6,7.35.7,3,1.05,7.05,1.05,12.15v40.35c0,4.1.72,6.93,2.18,8.48,1.45,1.55,3.92,2.33,7.42,2.33v3.15c-10-.4-16.6-.6-19.8-.6-3,0-9.5.2-19.5.6v-3.15c3,0,5.1-.77,6.3-2.33,1.2-1.55,1.8-4.37,1.8-8.48v-46.65c0-4.1-.68-7.2-2.03-9.3-1.35-2.1-3.78-3.15-7.27-3.15-4.1,0-7.6,1.68-10.5,5.02-2.9,3.35-4.35,7.48-4.35,12.38v41.7c0,4.1.6,6.93,1.8,8.48,1.2,1.55,3.3,2.33,6.3,2.33v3.15c-9.2-.4-15.4-.6-18.6-.6-3,0-9.9.2-20.7.6v-3.15c3.6,0,6.1-.77,7.5-2.33,1.4-1.55,2.1-4.37,2.1-8.48v-47.25c0-4.6-.7-7.95-2.1-10.05-1.4-2.1-3.9-3.15-7.5-3.15v-3.15c3.2.3,6.3.45,9.3.45,8.9,0,16.2-.7,21.9-2.1v13.5c4.5-9.3,12.7-13.95,24.6-13.95,7.6,0,13.1,1.95,16.5,5.85Z"/>
      <path class="cls-1" d="M385.5,102.3l2.7.9c-2,6.5-5.58,12.03-10.73,16.57-5.15,4.55-11.58,6.83-19.27,6.83-10.6,0-19.03-3.38-25.28-10.12-6.25-6.75-9.38-16.73-9.38-29.93s3.35-23.82,10.05-30.97c6.7-7.15,15.6-10.73,26.7-10.73,18.8,0,28.2,11.1,28.2,33.3h-42.15c-.1,1.5-.15,3.85-.15,7.05,0,6.6.92,12.1,2.77,16.5,1.85,4.4,4.25,7.6,7.2,9.6,2.95,2,6.12,3,9.53,3,8.2,0,14.8-4,19.8-12ZM350.47,54.67c-2.35,4.45-3.83,11.33-4.43,20.62h23.55c.2-7.9-.58-14.42-2.33-19.57-1.75-5.15-4.38-7.73-7.88-7.73s-6.58,2.23-8.92,6.67ZM378.45,7.65c0,2.1-.75,4.15-2.25,6.15-1.1,1.3-2.48,2.62-4.12,3.98-1.65,1.35-3.43,2.73-5.33,4.12-6,4.2-11.3,8.45-15.9,12.75l-1.65-1.35c2.7-4.9,5.5-11.05,8.4-18.45,1.3-3.1,2.32-5.42,3.07-6.98.75-1.55,1.67-2.97,2.78-4.27,1.9-2.4,4.25-3.6,7.05-3.6,2.1,0,3.85.65,5.25,1.95,1.8,1.3,2.7,3.2,2.7,5.7Z"/>
      <path class="cls-1" d="M402.67,120.6c-3.15-3.3-4.73-7.65-4.73-13.05,0-4.5,1.17-8.22,3.52-11.17,2.35-2.95,5.2-5.22,8.55-6.83,3.35-1.6,7.62-3.3,12.83-5.1,5.5-1.9,9.52-3.62,12.08-5.18,2.55-1.55,3.82-3.67,3.82-6.38v-11.7c0-4.2-.98-7.47-2.92-9.83-1.95-2.35-4.98-3.52-9.08-3.52-4.8,0-8.45,1.2-10.95,3.6,2.8,1,4.97,2.5,6.52,4.5,1.55,2,2.32,4.35,2.32,7.05,0,3.4-1.15,6.1-3.45,8.1-2.3,2-5.1,3-8.4,3-3.5,0-6.2-1.1-8.1-3.3-1.9-2.2-2.85-4.95-2.85-8.25,0-2.8.67-5.17,2.02-7.12,1.35-1.95,3.42-3.77,6.23-5.47,2.7-1.6,6.02-2.85,9.98-3.75,3.95-.9,8.27-1.35,12.98-1.35s9.15.5,12.75,1.5c3.6,1,6.6,2.7,9,5.1,2.2,2.2,3.67,4.9,4.42,8.1.75,3.2,1.12,7.55,1.12,13.05v40.8c0,2.4.23,4.1.67,5.1.45,1,1.32,1.5,2.62,1.5,1.5,0,3.3-.85,5.4-2.55l1.5,2.55c-4.5,3.7-10,5.55-16.5,5.55-5.5,0-9.35-1.1-11.55-3.3-2.2-2.2-3.35-5.15-3.45-8.85-5,8.1-12.35,12.15-22.05,12.15-6.4,0-11.17-1.65-14.32-4.95ZM438.75,109.8v-30.75c-1.2,2-3.75,4.2-7.65,6.6-3.9,2.5-6.85,5-8.85,7.5-2,2.5-3,6.1-3,10.8,0,4.1.85,7.12,2.55,9.07,1.7,1.95,3.95,2.93,6.75,2.93,3.9,0,7.3-2.05,10.2-6.15Z"/>
      <path class="cls-1" d="M502.04,149.7c4.2-.4,7.67-1.63,10.43-3.68,2.75-2.05,4.85-5.45,6.3-10.2,1.45-4.75,2.18-11.23,2.18-19.43V34.2c0-3.8-.28-6.55-.83-8.25-.55-1.7-1.6-2.85-3.15-3.45-1.55-.6-3.98-1-7.27-1.2v-3c5,.3,12.55.45,22.65.45s18.2-.15,23.7-.45v3c-3.4.2-5.85.6-7.35,1.2s-2.53,1.75-3.08,3.45c-.55,1.7-.83,4.45-.83,8.25v64.05c0,14.1-.85,24.1-2.55,30-2.1,7.3-6.58,13.2-13.42,17.7-6.85,4.5-15.78,6.75-26.78,6.75v-3Z"/>
      <path class="cls-1" d="M626.54,54.67c6.5,6.55,9.75,16.93,9.75,31.12s-3.25,24.55-9.75,31.05c-6.5,6.5-15.5,9.75-27,9.75s-20.38-3.25-26.93-9.75c-6.55-6.5-9.83-16.85-9.83-31.05s3.27-24.57,9.83-31.12,15.52-9.82,26.93-9.82,20.5,3.28,27,9.82ZM589.27,57.23c-2.55,6.25-3.82,15.78-3.82,28.57s1.27,22.3,3.82,28.5c2.55,6.2,5.97,9.3,10.28,9.3s7.85-3.08,10.35-9.23c2.5-6.15,3.75-15.67,3.75-28.58s-1.28-22.45-3.82-28.65c-2.55-6.2-5.98-9.3-10.28-9.3s-7.73,3.13-10.28,9.38Z"/>
      <path class="cls-1" d="M717.89,50.7c1.7,1.9,2.9,4.35,3.6,7.35.7,3,1.05,7.05,1.05,12.15v40.35c0,4.1.72,6.93,2.17,8.48,1.45,1.55,3.92,2.33,7.43,2.33v3.15c-10-.4-16.6-.6-19.8-.6-3,0-9.5.2-19.5.6v-3.15c3,0,5.1-.77,6.3-2.33,1.2-1.55,1.8-4.37,1.8-8.48v-46.65c0-4.1-.67-7.2-2.03-9.3-1.35-2.1-3.78-3.15-7.27-3.15-4.1,0-7.6,1.68-10.5,5.02-2.9,3.35-4.35,7.48-4.35,12.38v41.7c0,4.1.6,6.93,1.8,8.48,1.2,1.55,3.3,2.33,6.3,2.33v3.15c-9.2-.4-15.4-.6-18.6-.6-3,0-9.9.2-20.7.6v-3.15c3.6,0,6.1-.77,7.5-2.33,1.4-1.55,2.1-4.37,2.1-8.48v-47.25c0-4.6-.7-7.95-2.1-10.05-1.4-2.1-3.9-3.15-7.5-3.15v-3.15c3.2.3,6.3.45,9.3.45,8.9,0,16.2-.7,21.9-2.1v13.5c4.5-9.3,12.7-13.95,24.6-13.95,7.6,0,13.1,1.95,16.5,5.85Z"/>
      <path class="cls-1" d="M801.59,102.3l2.7.9c-2,6.5-5.58,12.03-10.73,16.57-5.15,4.55-11.58,6.83-19.27,6.83-10.6,0-19.03-3.38-25.28-10.12-6.25-6.75-9.38-16.73-9.38-29.93s3.35-23.82,10.05-30.97c6.7-7.15,15.6-10.73,26.7-10.73,18.8,0,28.2,11.1,28.2,33.3h-42.15c-.1,1.5-.15,3.85-.15,7.05,0,6.6.92,12.1,2.77,16.5,1.85,4.4,4.25,7.6,7.2,9.6,2.95,2,6.12,3,9.53,3,8.2,0,14.8-4,19.8-12ZM766.57,54.67c-2.35,4.45-3.82,11.33-4.42,20.62h23.55c.2-7.9-.58-14.42-2.32-19.57-1.75-5.15-4.38-7.73-7.88-7.73s-6.58,2.23-8.93,6.67Z"/>
      <path class="cls-1" d="M853.49,46.27c3.2.95,5.65,2.02,7.35,3.23,1,.7,1.9,1.05,2.7,1.05.9,0,1.67-.47,2.33-1.42.65-.95,1.07-2.33,1.28-4.12h3.15c-.4,5.1-.6,13.9-.6,26.4h-3.15c-.9-6.6-2.88-12.12-5.92-16.57-3.05-4.45-7.48-6.68-13.27-6.68-3,0-5.48.85-7.43,2.55-1.95,1.7-2.92,4.05-2.92,7.05,0,3.4,1.15,6.33,3.45,8.77,2.3,2.45,5.9,5.43,10.8,8.93l4.35,3.15c6.1,4.6,10.6,8.7,13.5,12.3,2.9,3.6,4.35,8.1,4.35,13.5,0,4.4-1.28,8.3-3.83,11.7-2.55,3.4-5.98,6-10.27,7.8-4.3,1.8-9.05,2.7-14.25,2.7-5.5,0-10.2-1.05-14.1-3.15-3.2-1.6-5.5-2.65-6.9-3.15-1-.3-1.88.03-2.62.98-.75.95-1.33,2.38-1.73,4.27h-3.15c.4-5.7.6-15.7.6-30h3.15c2,18.4,8.75,27.6,20.25,27.6,2.9,0,5.37-.87,7.42-2.62,2.05-1.75,3.08-4.42,3.08-8.02,0-2.8-.63-5.3-1.88-7.5-1.25-2.2-2.83-4.15-4.73-5.85-1.9-1.7-4.75-4.05-8.55-7.05-4.5-3.6-7.93-6.5-10.28-8.7-2.35-2.2-4.35-4.8-6-7.8-1.65-3-2.47-6.35-2.47-10.05,0-6.4,2.5-11.45,7.5-15.15,5-3.7,11.1-5.55,18.3-5.55,3.8,0,7.3.48,10.5,1.42Z"/>
    </g>
    <g>
      <path class="cls-1" d="M20.03,189.71h13.01v.75c0,3.46-1.03,7.21-3,9.87-.94,1.26-4.45,5.62-11.61,5.62-9.27,0-16.19-7.07-16.19-16.15s6.97-16.15,16.29-16.15c3,0,6.5.75,9.55,3.09,1.4,1.08,2.71,2.48,3.6,3.7l-2.57,2.34c-.89-1.26-1.92-2.39-2.95-3.23-1.5-1.22-3.84-2.62-7.58-2.62-7.53,0-12.78,5.66-12.78,12.92,0,8.52,6.79,12.82,12.68,12.82,4.17,0,7.77-2.11,9.55-5.24.56-.98,1.17-2.48,1.26-4.45h-9.27v-3.28Z"/>
      <path class="cls-1" d="M48.25,174.17c2.11,0,5.24.14,7.58,1.73,1.82,1.22,3.42,3.6,3.42,6.93,0,4.77-3.14,8.28-7.86,8.61l9.92,13.95h-4.21l-9.5-13.67h-.89v13.67h-3.46v-31.21h5.01ZM46.71,188.63h2.2c4.31,0,6.88-2.06,6.88-5.71,0-1.73-.52-3.46-2.48-4.59-1.4-.8-3-.89-4.49-.89h-2.11v11.18Z"/>
      <path class="cls-1" d="M87.8,196.59h-13.29l-3.74,8.8h-3.84l14.37-32.71,13.99,32.71h-3.84l-3.65-8.8ZM86.44,193.31l-5.24-12.5-5.33,12.5h10.58Z"/>
      <path class="cls-1" d="M117.75,177.45h-10.76v9.22h10.39v3.28h-10.39v15.44h-3.46v-31.21h14.23v3.28Z"/>
      <path class="cls-1" d="M131.13,174.17v31.21h-3.46v-31.21h3.46Z"/>
      <path class="cls-1" d="M156.96,180.35c-.42-.84-1.12-1.78-1.83-2.34-.61-.47-1.73-1.08-3.51-1.08-3.09,0-5.24,1.92-5.24,4.82,0,1.22.33,1.92,1.17,2.71.94.94,2.11,1.45,3.28,1.97l3,1.31c1.83.8,3.51,1.64,4.82,2.95,1.59,1.59,2.25,3.42,2.25,5.66,0,5.76-4.26,9.59-9.87,9.59-2.06,0-4.63-.42-6.79-2.53-1.54-1.5-2.48-3.65-2.9-5.52l3.37-.94c.23,1.64.98,3.04,1.87,3.98,1.36,1.36,2.9,1.73,4.49,1.73,4.26,0,6.27-3.04,6.27-6.18,0-1.4-.42-2.62-1.54-3.65-.89-.84-2.11-1.4-3.74-2.15l-2.81-1.31c-1.22-.56-2.76-1.22-4.17-2.57-1.36-1.31-2.15-2.76-2.15-5.1,0-4.82,3.7-8.05,8.75-8.05,1.92,0,3.46.37,5.01,1.4,1.26.84,2.34,2.11,3.04,3.46l-2.76,1.83Z"/>
      <path class="cls-1" d="M174.56,187.56l13.29-13.38h4.68l-14.6,14.55,15.07,16.66h-4.77l-12.78-14.32-.89.89v13.43h-3.46v-31.21h3.46v13.38Z"/>
      <path class="cls-1" d="M216.26,174.17h6.36c3.14,0,7.58.33,11.51,3.65,2.85,2.39,5.33,6.36,5.33,11.98,0,6.55-3.23,10.06-5.48,11.98-2.85,2.43-5.85,3.6-11.42,3.6h-6.32v-31.21ZM219.72,202.11h3.04c2.48,0,5.9-.28,8.94-2.81,2.34-1.97,4.21-5.05,4.21-9.5,0-7.49-5.24-12.35-13.15-12.35h-3.04v24.66Z"/>
      <path class="cls-1" d="M265.87,177.45h-12.73v9.27h12.35v3.28h-12.35v12.12h12.73v3.28h-16.19v-31.21h16.19v3.28Z"/>
      <path class="cls-1" d="M290.01,180.35c-.42-.84-1.12-1.78-1.83-2.34-.61-.47-1.73-1.08-3.51-1.08-3.09,0-5.24,1.92-5.24,4.82,0,1.22.33,1.92,1.17,2.71.94.94,2.11,1.45,3.28,1.97l3,1.31c1.83.8,3.51,1.64,4.82,2.95,1.59,1.59,2.25,3.42,2.25,5.66,0,5.76-4.26,9.59-9.87,9.59-2.06,0-4.63-.42-6.79-2.53-1.54-1.5-2.48-3.65-2.9-5.52l3.37-.94c.23,1.64.98,3.04,1.87,3.98,1.36,1.36,2.9,1.73,4.49,1.73,4.26,0,6.27-3.04,6.27-6.18,0-1.4-.42-2.62-1.54-3.65-.89-.84-2.11-1.4-3.74-2.15l-2.81-1.31c-1.22-.56-2.76-1.22-4.17-2.57-1.36-1.31-2.15-2.76-2.15-5.1,0-4.82,3.7-8.05,8.75-8.05,1.92,0,3.46.37,5.01,1.4,1.26.84,2.34,2.11,3.04,3.46l-2.76,1.83Z"/>
      <path class="cls-1" d="M307.61,174.17v31.21h-3.46v-31.21h3.46Z"/>
      <path class="cls-1" d="M335.6,189.71h13.01v.75c0,3.46-1.03,7.21-3,9.87-.94,1.26-4.45,5.62-11.61,5.62-9.27,0-16.19-7.07-16.19-16.15s6.97-16.15,16.29-16.15c3,0,6.5.75,9.55,3.09,1.4,1.08,2.71,2.48,3.6,3.7l-2.57,2.34c-.89-1.26-1.92-2.39-2.95-3.23-1.5-1.22-3.84-2.62-7.58-2.62-7.53,0-12.78,5.66-12.78,12.92,0,8.52,6.79,12.82,12.68,12.82,4.17,0,7.77-2.11,9.55-5.24.56-.98,1.17-2.48,1.26-4.45h-9.27v-3.28Z"/>
      <path class="cls-1" d="M358.81,205.39v-32.53l24.33,25.51v-24.2h3.46v32.62l-24.34-25.51v24.1h-3.46Z"/>
      <path class="cls-1" d="M437.24,193.97c-.84,1.17-2.06,2.67-3.98,4.63l5.24,6.79h-4.31l-3.37-4.35c-2.71,2.71-6.5,4.91-10.06,4.91-5.1,0-9.03-3.7-9.03-8.66,0-3.37,1.78-5.43,2.81-6.46,1.64-1.64,4.59-3.46,5.24-3.88-2.11-2.71-3.09-4.59-3.09-6.69,0-3.28,2.29-6.6,6.79-6.6s6.6,3.14,6.6,6.27c0,1.45-.42,3.51-2.9,5.66-.8.7-.51.33-2.53,2.01l6.51,8.38c1.68-1.78,2.67-2.9,3.56-4.12l2.53,2.11ZM421.8,189.52c-2.29,1.4-3.51,2.43-4.4,3.23s-2.2,2.06-2.2,4.49c0,3.09,2.29,5.52,5.52,5.52s6.83-3.18,8-4.3l-6.93-8.94ZM422.64,185.08l2.06-1.59c1.78-1.4,2.11-2.53,2.11-3.6,0-2.2-1.73-3.23-3.37-3.23-1.92,0-3.46,1.45-3.46,3.42,0,1.36.66,2.25,1.26,3.09l1.4,1.92Z"/>
      <path class="cls-1" d="M461.77,174.17l8.24,23.4,9.78-24.99,9.27,24.99,9.13-23.4h3.84l-13.1,32.85-9.17-24.99-9.83,24.99-11.98-32.85h3.84Z"/>
      <path class="cls-1" d="M526.44,177.45h-12.73v9.27h12.36v3.28h-12.36v12.12h12.73v3.28h-16.19v-31.21h16.19v3.28Z"/>
      <path class="cls-1" d="M542.26,174.17c1.73,0,4.87.14,7.16,1.97.98.75,2.81,2.67,2.81,6.46,0,1.54-.33,4.26-3.09,6.13,4.35,1.08,5.94,4.87,5.94,7.86s-1.5,5.43-3.18,6.74c-2.48,1.97-5.33,2.06-7.49,2.06h-7.77v-31.21h5.62ZM540.11,187.88h2.62c1.83,0,6.13-.37,6.13-5.19,0-5.15-5.05-5.24-6.04-5.24h-2.71v10.44ZM540.11,202.11h3.98c2.01,0,3.98-.14,5.48-1.31,1.22-.89,2.06-2.43,2.06-4.31,0-2.48-1.45-3.93-2.67-4.59-1.17-.65-2.81-.94-5.29-.94h-3.56v11.14Z"/>
      <path class="cls-1" d="M570.9,174.17c1.73,0,4.87.14,7.16,1.97.98.75,2.81,2.67,2.81,6.46,0,1.54-.33,4.26-3.09,6.13,4.35,1.08,5.94,4.87,5.94,7.86s-1.5,5.43-3.18,6.74c-2.48,1.97-5.33,2.06-7.49,2.06h-7.77v-31.21h5.62ZM568.75,187.88h2.62c1.83,0,6.13-.37,6.13-5.19,0-5.15-5.05-5.24-6.04-5.24h-2.71v10.44ZM568.75,202.11h3.98c2.01,0,3.98-.14,5.48-1.31,1.22-.89,2.06-2.43,2.06-4.31,0-2.48-1.45-3.93-2.67-4.59-1.17-.65-2.81-.94-5.29-.94h-3.56v11.14Z"/>
      <path class="cls-1" d="M597.39,193.31c0,2.62,0,5.48,2.48,7.58,1.26,1.08,3.42,1.78,5.15,1.78s3.88-.7,5.15-1.78c2.48-2.11,2.48-4.96,2.48-7.58v-19.14h3.46v20.08c0,2.62-.28,5.15-1.96,7.49-1.87,2.57-5.15,4.21-9.13,4.21s-7.25-1.64-9.13-4.21c-1.68-2.34-1.97-4.87-1.97-7.49v-20.08h3.46v19.14Z"/>
      <path class="cls-1" d="M635.67,177.45v27.94h-3.46v-27.94h-7.58v-3.28h18.63v3.28h-7.58Z"/>
      <path class="cls-1" d="M651.96,174.17l8.8,23.82,8.8-23.82h3.84l-12.64,33.09-12.64-33.09h3.84Z"/>
      <path class="cls-1" d="M697.82,177.45h-12.73v9.27h12.35v3.28h-12.35v12.12h12.73v3.28h-16.19v-31.21h16.19v3.28Z"/>
      <path class="cls-1" d="M731.89,181.05c-.98-.98-2.48-2.15-4.07-2.9-1.64-.75-3.56-1.22-5.38-1.22-7.21,0-12.54,5.8-12.54,13.01,0,8.47,6.88,12.73,12.59,12.73,2.11,0,4.17-.61,5.8-1.45,1.78-.89,3.04-2.06,3.6-2.62v4.31c-3.46,2.48-7.07,3.04-9.41,3.04-9.27,0-16.15-7.02-16.15-16.05s6.97-16.24,16.33-16.24c1.87,0,5.48.23,9.22,3.09v4.31Z"/>
      <path class="cls-1" d="M745.56,187.56l13.29-13.38h4.68l-14.6,14.55,15.07,16.66h-4.77l-12.78-14.32-.89.89v13.43h-3.46v-31.21h3.46v13.38Z"/>
      <path class="cls-1" d="M775.98,174.17v27.94h8.61v3.28h-12.07v-31.21h3.46Z"/>
      <path class="cls-1" d="M796.57,174.17v31.21h-3.46v-31.21h3.46Z"/>
      <path class="cls-1" d="M808.46,205.39v-32.53l24.34,25.51v-24.2h3.46v32.62l-24.34-25.51v24.1h-3.46Z"/>
      <path class="cls-1" d="M864.24,189.71h13.01v.75c0,3.46-1.03,7.21-3,9.87-.94,1.26-4.45,5.62-11.61,5.62-9.27,0-16.19-7.07-16.19-16.15s6.97-16.15,16.29-16.15c3,0,6.5.75,9.55,3.09,1.4,1.08,2.71,2.48,3.6,3.7l-2.57,2.34c-.89-1.26-1.92-2.39-2.95-3.23-1.5-1.22-3.84-2.62-7.58-2.62-7.54,0-12.78,5.66-12.78,12.92,0,8.52,6.79,12.82,12.68,12.82,4.17,0,7.77-2.11,9.55-5.24.56-.98,1.17-2.48,1.26-4.45h-9.27v-3.28Z"/>
    </g>
  </g>
</svg>